<?xml version="1.0" encoding="UTF-8" standalone="no"?>
<!-- Created with Inkscape (http://www.inkscape.org/) -->

<svg
   version="1.1"
   id="svg1"
   width="413"
   height="363"
   viewBox="0 0 413 363"
   sodipodi:docname="favicon.png"
   inkscape:version="1.3.2 (091e20e, 2023-11-25, custom)"
   xmlns:inkscape="http://www.inkscape.org/namespaces/inkscape"
   xmlns:sodipodi="http://sodipodi.sourceforge.net/DTD/sodipodi-0.dtd"
   xmlns="http://www.w3.org/2000/svg"
   xmlns:svg="http://www.w3.org/2000/svg">
  <defs
     id="defs1" />
  <sodipodi:namedview
     id="namedview1"
     pagecolor="#ffffff"
     bordercolor="#000000"
     borderopacity="0.25"
     inkscape:showpageshadow="2"
     inkscape:pageopacity="0.0"
     inkscape:pagecheckerboard="0"
     inkscape:deskcolor="#d1d1d1"
     inkscape:zoom="2.0169492"
     inkscape:cx="206.5"
     inkscape:cy="181.71008"
     inkscape:window-width="1350"
     inkscape:window-height="1237"
     inkscape:window-x="2838"
     inkscape:window-y="445"
     inkscape:window-maximized="0"
     inkscape:current-layer="g1" />
  <g
     inkscape:groupmode="layer"
     inkscape:label="Image"
     id="g1">
    <path
       style="display:inline;fill:#273fa3;fill-opacity:1"
       d="M 78.5,278.97918 C 74.582881,277.74827 69.123138,272.53896 67.381536,268.37072 66.621691,266.55215 66,262.89646 66,260.24695 c 0,-4.20801 0.769516,-5.99525 6.084269,-14.13103 3.346348,-5.12256 7.33683,-11.40674 8.867738,-13.96483 1.530908,-2.5581 7.905487,-12.83142 14.165731,-22.8296 6.260242,-9.99818 12.159562,-19.57938 13.109602,-21.29156 C 111.61623,181.9224 110.69947,182 179.46788,182 213.86055,182 242,181.75608 242,181.45796 c 0,-0.29812 -1.36988,-2.43562 -3.04417,-4.75 -1.67429,-2.31438 -4.05864,-5.78296 -5.29856,-7.70796 -1.23992,-1.925 -12.7666,-19.1914 -25.61485,-38.36978 C 195.19417,111.45184 184.09827,94.126835 183.38488,92.130216 180.09727,82.929061 183.1727,73.723668 191.36301,68.25 c 7.15742,-4.783372 15.58772,-4.187128 22.30532,1.577574 1.92549,1.652353 33.12112,47.611826 67.99343,100.172426 6.75079,10.175 12.65016,18.95 13.10971,19.5 0.45955,0.55 2.63833,3.7 4.84173,7 2.20341,3.3 11.307,16.92093 20.2302,30.26873 17.24774,25.80009 18.49664,28.53477 16.97681,37.17344 -1.60728,9.13571 -11.2923,16.67818 -20.13441,15.68021 -7.64482,-0.86284 -12.55731,-4.20453 -17.83955,-12.13526 C 288.68005,252.22364 271.24467,225.3733 270.12069,223.25 L 268.92963,221 h -67.47932 -67.47932 l -17.98494,27.25 C 99.464248,273.28311 97.658639,275.64626 93.791484,277.29779 88.544216,279.53872 82.422609,280.21183 78.5,278.97918 Z M 164,205.60699 c 0,-9.71249 -0.24592,-11.48738 -1.66722,-12.03278 -0.91697,-0.35188 -2.09506,-0.21193 -2.61798,0.31099 -0.52292,0.52292 -2.44825,0.70776 -4.2785,0.41075 -5.29291,-0.85892 -8.31595,0.38382 -10.11602,4.1586 -1.37936,2.89255 -1.42885,3.86913 -0.33045,6.52091 1.67363,4.0405 6.18339,6.40223 10.63165,5.56773 3.32191,-0.6232 3.37852,-0.57441 3.37852,2.9115 0,3.115 0.30344,3.54531 2.5,3.54531 H 164 Z M 151.2,205.8 c -1.67107,-1.67107 -1.50029,-6.30589 0.28701,-7.78922 0.83101,-0.68968 2.5605,-0.96469 3.92034,-0.62339 2.8922,0.7259 4.49203,5.824 2.55866,8.15357 -1.46619,1.76664 -5.11858,1.90647 -6.76601,0.25904 z m -29.49861,1.7 c 1.63938,-3.4378 1.77796,-3.5 7.79861,-3.5 6.02065,0 6.15923,0.0622 7.79861,3.5 1.25438,2.63045 2.29416,3.5 4.18521,3.5 1.3839,0 2.51618,-0.26286 2.51618,-0.58414 0,-0.51507 -3.98209,-8.10784 -10.31392,-19.66586 -1.62654,-2.96906 -2.64504,-3.75 -4.89072,-3.75 -2.62109,0 -3.25223,0.85164 -8.31586,11.22127 -3.01373,6.1717 -5.4795,11.5717 -5.4795,12 0,0.4283 1.13228,0.77873 2.51618,0.77873 1.89105,0 2.93083,-0.86955 4.18521,-3.5 z M 126,199.14922 C 126,197.43937 128.21602,192 128.91261,192 129.55059,192 133,198.358 133,199.53393 133,199.79027 131.425,200 129.5,200 c -1.925,0 -3.5,-0.38285 -3.5,-0.85078 z M 185.79044,202.25 186.08088,194 H 183.04044 180 v 5.98095 c 0,5.54426 -0.18237,6.02672 -2.49776,6.60784 C 172.94974,207.7314 172,206.59952 172,200.03138 172,194.23687 171.9001,194 169.45619,194 c -2.51744,0 -2.54076,0.0749 -2.25,7.2242 0.26309,6.46878 0.54319,7.34813 2.67873,8.40947 1.31171,0.65191 5.36171,1.11352 9,1.02581 L 185.5,210.5 Z m 13.95268,7.82367 c 1.98202,-0.56843 3.4511,-0.56843 3.80241,0 0.31488,0.50948 1.71909,0.92633 3.12048,0.92633 1.91257,0 2.3966,-0.39446 1.94098,-1.58179 C 208.27314,208.54823 208,205.43037 208,202.48964 208,195.64569 206.448,194 199.99367,194 194.08585,194 190,195.42083 190,197.47525 c 0,1.72163 4.49522,2.15052 5.5,0.52475 0.79835,-1.29175 6.5,-1.30847 6.5,-0.019 0,0.89678 -1.00487,1.23414 -7.73735,2.59767 -1.23054,0.24923 -3.00802,1.62933 -3.94995,3.06689 -1.67244,2.55247 -1.64799,2.66934 1.04311,4.98412 3.07644,2.64625 3.7757,2.76664 8.38731,1.44404 z M 195,205.625 c 0,-0.75625 1.40625,-1.65625 3.125,-2 4.67421,-0.93484 5.04145,-0.80453 3.875,1.375 -1.25748,2.34962 -7,2.86234 -7,0.625 z M 217,199 v -12 h -2.5 -2.5 v 12 12 h 2.5 2.5 z m 15.3995,11.03821 c 1.61946,-0.61572 2.74358,-0.61572 3.12412,0 0.32693,0.52898 1.59777,0.96179 2.8241,0.96179 2.15996,0 2.20914,-0.22415 1.57275,-7.16706 -0.48141,-5.2521 -1.144,-7.52322 -2.47983,-8.5 -2.5176,-1.84092 -11.47158,-1.7 -14.21813,0.22376 -3.09924,2.17079 -2.8221,3.79606 0.52749,3.09349 7.92898,-1.66309 9.0615,-1.76421 9.62092,-0.85904 0.3421,0.55352 -1.89403,1.57907 -5.1155,2.34612 -4.84556,1.15374 -5.87601,1.80052 -6.7192,4.2174 -0.85568,2.45269 -0.66633,3.12156 1.34471,4.75 2.58543,2.09355 5.67144,2.39621 9.51857,0.93354 z m -5.90066,-4.04008 C 225.8752,204.98906 229.89977,203 232.5651,203 c 1.94195,0 1.82787,2.63523 -0.14689,3.39301 -2.39144,0.91769 -5.22498,0.72866 -5.91937,-0.39488 z M 249,204.60199 c 0.55683,-6.56842 2.55533,-8.9989 5.75,-6.9929 1.29373,0.81236 1.82762,2.70128 2.04772,7.24489 0.2798,5.77626 0.44525,6.14602 2.75,6.14602 2.3642,0 2.45228,-0.24585 2.45228,-6.84501 0,-8.64076 -1.49835,-10.36801 -8.70861,-10.03901 -2.71187,0.12374 -5.42123,-0.0782 -6.02079,-0.44874 -0.59957,-0.37055 -1.80572,-0.39912 -2.68036,-0.0635 -1.26379,0.48497 -1.59024,2.19634 -1.59024,8.33658 0,8.36883 0.36196,9.29517 3.45885,8.85186 1.72248,-0.24656 2.11921,-1.21298 2.54115,-6.19019 z M 285.5,199 V 187.5 H 283 c -2.1347,0 -2.5432,0.51194 -2.79567,3.50357 -0.29457,3.49049 -0.31213,3.50227 -4.69883,3.15338 -3.6547,-0.29067 -4.83682,0.0835 -6.95433,2.20097 -2.94915,2.94915 -3.32235,7.09606 -0.94417,10.49138 2.18824,3.12415 4.83223,3.96818 11.893,3.79655 l 6,-0.14585 z m -13.54985,5.90686 c -2.49489,-4.66176 1.54576,-9.31738 6.01208,-6.92708 2.0218,1.08204 2.63888,4.29017 1.43078,7.43843 -0.91608,2.38726 -6.0815,2.03238 -7.44286,-0.51135 z M 151,261 v -12 h 7.41111 c 7.048,0 7.53794,0.15074 10,3.07673 2.1557,2.5619 2.58889,4.08072 2.58889,9.07692 0,5.29846 -0.34186,6.34206 -2.92308,8.92327 -2.68004,2.68005 -3.51147,2.92308 -10,2.92308 H 151 Z m 12.50118,6.6228 c 1.42089,-1.03898 1.88344,-2.63719 1.88344,-6.5077 0,-5.96282 -0.74377,-6.97457 -5.72093,-7.78225 L 156,252.73832 V 260.86916 269 h 2.80887 c 1.54488,0 3.65642,-0.61974 4.69231,-1.3772 z M 174,264 c 0,-8.93333 0.0185,-9 2.5,-9 2.48148,0 2.5,0.0667 2.5,9 0,8.93333 -0.0185,9 -2.5,9 -2.48148,0 -2.5,-0.0667 -2.5,-9 z m 12.88873,6.25 c -0.58397,-1.5125 -2.12766,-5.5625 -3.43043,-9 L 181.08963,255 h 2.90344 c 2.70418,0 3.0224,0.42394 4.63662,6.17696 1.87047,6.66632 2.24018,6.50339 4.37245,-1.92696 0.9568,-3.78286 1.39553,-4.25 3.99159,-4.25 h 2.91664 l -2.36867,6.25 c -1.30277,3.4375 -2.84646,7.4875 -3.43043,9 -0.77346,2.00327 -1.75406,2.75 -3.61127,2.75 -1.85721,0 -2.83781,-0.74673 -3.61127,-2.75 z m 16.28558,0.43555 c -3.10639,-3.3066 -3.03145,-10.53168 0.14014,-13.51124 C 208.23973,252.54726 217,255.83752 217,262.31445 217,264.89736 216.79337,265 211.59362,265 c -4.84949,0 -5.35437,0.19889 -4.90146,1.93083 0.57562,2.20116 2.95089,3.45574 3.83483,2.0255 0.97843,-1.58313 6.47301,-1.1515 6.47301,0.50849 0,4.00032 -10.35543,4.91465 -13.82569,1.22073 z M 211,260 c -0.5887,-1.1 -1.4887,-2 -2,-2 -0.5113,0 -1.4113,0.9 -2,2 -0.96234,1.79815 -0.76049,2 2,2 2.76049,0 2.96234,-0.20185 2,-2 z m 9,4.10342 v -8.89657 l 5.5,-0.0657 c 4.23034,-0.0505 5.5,0.27758 5.5,1.42133 0,0.81786 -1.06349,1.89136 -2.36331,2.38555 -2.65522,1.00951 -3.60302,3.57375 -3.62304,9.80197 -0.0124,3.86303 -0.24128,4.25 -2.51365,4.25 -2.47933,0 -2.5,-0.0736 -2.5,-8.89658 z m 13.75,7.81648 c -4.37747,-2.54964 -0.2209,-5.31265 4.32899,-2.87763 1.24023,0.66375 2.55505,0.70228 3.62038,0.10609 1.37666,-0.77041 0.79884,-1.35337 -3.26325,-3.29227 -4.0541,-1.93509 -4.99612,-2.88334 -5.27191,-5.30678 C 232.73921,256.81466 235.05855,255 240.25687,255 244.79,255 248,256.46555 248,258.53518 c 0,1.72787 -3.27144,1.9251 -6.1731,0.37218 -1.38235,-0.73981 -2.36966,-0.7646 -3.0575,-0.0768 -0.68784,0.68784 0.55775,1.76722 3.85736,3.34264 5.45098,2.60261 6.74961,5.6484 3.79861,8.90923 -1.93193,2.13475 -9.58042,2.64007 -12.67537,0.83743 z M 174,250.5 c 0,-0.93333 0.94444,-1.5 2.5,-1.5 1.55556,0 2.5,0.56667 2.5,1.5 0,0.93333 -0.94444,1.5 -2.5,1.5 -1.55556,0 -2.5,-0.56667 -2.5,-1.5 z M 129.54784,177.41132 C 128.48629,176.6351 126.83031,176 125.86789,176 c -3.51004,0 -3.20831,-1.67725 3.19311,-17.75 0.49287,-1.2375 1.42479,-2.25 2.07094,-2.25 0.64615,0 3.55386,-2.25 6.46158,-5 2.90772,-2.75 5.77483,-5 6.37137,-5 1.15894,0 3.41239,-4.95606 2.61569,-5.75276 -0.26146,-0.26145 -2.01467,0.47596 -3.89601,1.63869 -4.75516,2.93885 -6.09521,2.69851 -11.20239,-2.00912 -4.20913,-3.87984 -4.64622,-4.0515 -7.40574,-2.90847 -1.61293,0.6681 -4.94484,3.19853 -7.40424,5.62319 -2.4594,2.42466 -4.68056,4.40847 -4.93592,4.40847 -1.009,0 -5.89312,-7.93721 -5.38751,-8.7553 0.68145,-1.10261 8.07843,-4.73327 12.55045,-6.16013 3.99346,-1.27417 9.30267,-1.41808 10.65078,-0.28871 0.5225,0.43772 2.68955,1.38567 4.81567,2.10655 3.55404,1.20504 4.03531,1.14105 5.97005,-0.79369 1.9509,-1.9509 1.99925,-2.3416 0.66283,-5.35655 -0.79286,-1.78869 -1.43379,-6.05661 -1.4243,-9.48427 0.0153,-5.50804 0.35557,-6.58521 2.92908,-9.27137 1.74106,-1.81728 4.33682,-3.26715 6.45602,-3.60602 5.10054,-0.81561 8.95177,-4.40463 8.31286,-7.746881 -0.55777,-2.917763 1.08918,-3.607175 2.51799,-1.054029 0.48928,0.874279 1.19413,1.51517 1.56634,1.424201 0.37222,-0.09097 2.02301,0.130288 3.66843,0.491682 3.78082,0.830408 5.34321,3.712837 4.68252,8.638677 L 169.19031,111 h 5.39637 c 4.31337,0 5.64704,-0.40138 6.64539,-2 1.43146,-2.29213 4.46131,-2.54848 7.0353,-0.59525 1.98009,1.50255 1.36795,4.59525 -0.90954,4.59525 -0.78551,0 -2.42486,0.63873 -3.64301,1.4194 -1.21815,0.78068 -4.80232,1.73253 -7.96482,2.11523 -5.4143,0.65519 -5.75,0.85403 -5.75,3.4058 0,1.68664 1.6993,4.89835 4.5,8.5051 3.28958,4.23633 4.5,6.69841 4.5,9.15335 0,3.18624 -0.1235,3.30197 -2.41123,2.25961 -1.58287,-0.7212 -2.62641,-2.24558 -3.03756,-4.43721 -0.38832,-2.0699 -1.71572,-4.1143 -3.49314,-5.37993 -3.60739,-2.56869 -3.71142,-2.55866 -4.46147,0.42979 -0.34112,1.35912 -1.49495,2.93927 -2.56406,3.51145 -1.06912,0.57217 -4.51761,4.63516 -7.66331,9.02886 -3.1457,4.3937 -6.05944,7.98855 -6.47498,7.98855 -2.02895,0 -12.94477,7.80849 -13.97943,10 -0.64917,1.375 -1.40542,5.77293 -1.68056,9.77318 -0.27514,4.00025 -0.78286,7.44784 -1.12828,7.66132 -0.34542,0.21348 -1.49658,-0.24695 -2.55814,-1.02318 z m 15.98379,-53.31168 c -0.34267,-1.07963 0.85268,-5.0265 2.84909,-9.40734 2.91349,-6.39322 3.20226,-7.63835 1.88845,-8.1425 -2.07925,-0.79789 -5.91036,1.83554 -8.37172,5.75453 -2.38282,3.79395 -2.11419,10.18974 0.6021,14.33533 1.54106,2.35195 1.85963,2.4699 2.68545,0.99425 0.51533,-0.92085 0.67131,-2.51127 0.34663,-3.53427 z M 159,104 c 0,-0.55 -0.70156,-1 -1.55902,-1 -0.85746,0 -1.2809,0.45 -0.94098,1 0.33992,0.55 1.04148,1 1.55902,1 0.51754,0 0.94098,-0.45 0.94098,-1 z"
       id="path1" />
  </g>
</svg>
